<svg viewBox="0 0 16.00 16.00" xmlns="http://www.w3.org/2000/svg" fill="#1C7DF1" class="bi bi-rss-fill" stroke="#000000" stroke-width="0.00016">
    <g id="SVGRepo_bgCarrier" stroke-width="0"></g>
    <g id="SVGRepo_tracerCarrier" stroke-linecap="round" stroke-linejoin="round"></g>
    <g id="SVGRepo_iconCarrier">
        <path d="M2 0a2 2 0 0 0-2 2v12a2 2 0 0 0 2 2h12a2 2 0 0 0 2-2V2a2 2 0 0 0-2-2H2zm1.5 2.5c5.523 0 10 4.477 10 10a1 1 0 1 1-2 0 8 8 0 0 0-8-8 1 1 0 0 1 0-2zm0 4a6 6 0 0 1 6 6 1 1 0 1 1-2 0 4 4 0 0 0-4-4 1 1 0 0 1 0-2zm.5 7a1.5 1.5 0 1 1 0-3 1.5 1.5 0 0 1 0 3z"></path>
    </g>
</svg>